<?xml version="1.0" encoding="UTF-8" standalone="no"?>
<svg
   xmlns:dc="http://purl.org/dc/elements/1.1/"
   xmlns:cc="http://creativecommons.org/ns#"
   xmlns:rdf="http://www.w3.org/1999/02/22-rdf-syntax-ns#"
   xmlns:svg="http://www.w3.org/2000/svg"
   xmlns="http://www.w3.org/2000/svg"
   xmlns:sodipodi="http://sodipodi.sourceforge.net/DTD/sodipodi-0.dtd"
   xmlns:inkscape="http://www.inkscape.org/namespaces/inkscape"
   version="1.1"
   id="Layer_1"
   x="0px"
   y="0px"
   width="100px"
   height="100px"
   viewBox="0 0 100 100"
   enable-background="new 0 0 100 100"
   xml:space="preserve"
   inkscape:version="0.48.3.1 r9886"
   sodipodi:docname="bike.svg"><metadata
   id="metadata17"><rdf:RDF><cc:Work
       rdf:about=""><dc:format>image/svg+xml</dc:format><dc:type
         rdf:resource="http://purl.org/dc/dcmitype/StillImage" /></cc:Work></rdf:RDF></metadata><defs
   id="defs15" /><sodipodi:namedview
   pagecolor="#ffffff"
   bordercolor="#666666"
   borderopacity="1"
   objecttolerance="10"
   gridtolerance="10"
   guidetolerance="10"
   inkscape:pageopacity="0"
   inkscape:pageshadow="2"
   inkscape:window-width="1855"
   inkscape:window-height="1056"
   id="namedview13"
   showgrid="false"
   inkscape:zoom="2.36"
   inkscape:cx="50"
   inkscape:cy="50"
   inkscape:window-x="65"
   inkscape:window-y="24"
   inkscape:window-maximized="1"
   inkscape:current-layer="Layer_1" />
<path
   fill="#000000"
   d="M79.355,58.246c-3.013,0.006-5.872,0.645-8.45,1.814l-5.577-10.326l0.18-0.625l2.301-2.255  c0.318-0.313,0.58-0.661,0.793-1.029c1.533-2.385,1.566-5.557-0.168-8.018l-12.8-18.161c-2.282-3.238-6.757-4.014-9.992-1.73  c-0.252,0.175-0.486,0.366-0.707,0.567c-0.271,0.194-0.527,0.421-0.762,0.68L27.444,37.684c-1.666,1.846-1.625,4.635,0.021,6.432  l-5.518,0.012c-0.807,0.001-1.46,0.408-1.456,1.215c0,0.804,0.655,1.208,1.462,1.205l7.316-0.013l-0.574,2.929  c-0.004,0.004-0.002,0.147-0.004,0.15l-0.908,4.258l-1.756,5.078c-1.742-0.479-3.568-0.718-5.46-0.714  C9.208,58.256-0.02,67.534,0,78.896c0.02,11.361,9.282,20.588,20.646,20.567c11.361-0.022,20.587-9.284,20.567-20.645  c-0.016-8.444-5.136-15.703-12.428-18.869l1.011-2.897l16.139,16.652l2.371,7.716c0.639,2.076,2.561,3.403,4.623,3.38  c0.449-0.005,0.904-0.074,1.354-0.212c1.35-0.414,2.381-1.378,2.93-2.568l1.795-0.138c1.465,9.955,10.073,17.609,20.423,17.59  c11.36-0.02,20.588-9.287,20.568-20.649C99.977,67.463,90.718,58.224,79.355,58.246z M37.808,78.826  c0.016,9.482-7.687,17.213-17.169,17.229c-9.483,0.019-17.213-7.685-17.23-17.165c-0.018-9.481,7.683-17.215,17.166-17.231  c1.495-0.003,2.95,0.188,4.333,0.547l-5.679,16.298c-0.264,0.76,0.137,1.591,0.898,1.855c0.158,0.058,0.32,0.083,0.479,0.083  c0.606,0,1.171-0.378,1.378-0.979l5.68-16.287C33.623,65.871,37.794,71.864,37.808,78.826z M32.504,45.528  c0.008-0.039,0.014-0.072,0.02-0.107c0.752-0.256,1.449-0.697,2.021-1.325l11.664-12.919l9.778,13.874l-2.704,2.65l-21.35,0.039  L32.504,45.528z M43.573,57.22c-1.277,1.253-1.75,3.113-1.225,4.822l1.656,5.39L30.787,53.883l0.514-2.507l18.268-0.034  L43.573,57.22z M55.601,72.594l-3.253-10.58l8.878-8.706L55.601,72.594z M58.964,78.91c0,0.023,0,0.045,0,0.065l-1.398,0.1  c-0.029-0.152-0.068-0.31-0.115-0.463l-0.225-0.724l6.981-24.103l4.238,7.714C62.697,65.17,58.95,71.603,58.964,78.91z   M69.959,64.499l7.079,13.091l-14.842,1.126C62.251,72.781,65.326,67.555,69.959,64.499z M79.424,96.072  c-8.558,0.016-15.686-6.253-17.009-14.444l17.087-1.301c0.492-0.036,0.936-0.321,1.172-0.756c0.238-0.435,0.238-0.959,0.004-1.392  l-8.151-15.073c2.094-0.914,4.404-1.431,6.833-1.432c9.487-0.019,17.217,7.682,17.232,17.168  C96.609,88.323,88.909,96.055,79.424,96.072z"
   id="path3"
   style="fill:#ffffff" />
<circle
   fill="#000000"
   cx="40.747"
   cy="8.179"
   r="7.651"
   id="circle5"
   style="fill:#ffffff" />
<path
   fill="#000000"
   d="M78.429,53.02c0,0.565,0.459,1.023,1.022,1.023H98.5c0.566,0,1.023-0.458,1.023-1.023V34.141  c0-0.564-0.457-1.023-1.023-1.023c-0.564,0-1.021,0.459-1.021,1.023v17.856H79.451C78.888,51.997,78.429,52.455,78.429,53.02z"
   id="path7"
   style="fill:#ffffff" />
<circle
   fill="#000000"
   cx="84.373"
   cy="19.417"
   r="5.721"
   id="circle9"
   style="fill:#ffffff" />
<path
   fill="#000000"
   d="M71.042,38.689c0.057,0,0.115-0.002,0.174-0.005l8.032-0.512c0.609-0.04,1.189-0.285,1.641-0.696  l3.008-2.748l2.049,9.854h-8.028c-0.834,0-1.623,0.389-2.131,1.052l-6.073,7.927c-0.9,1.177-0.678,2.861,0.498,3.764  c0.488,0.373,1.062,0.554,1.632,0.554c0.807,0,1.604-0.362,2.133-1.053l5.267-6.874h11.433c0.008,0,0.016,0.001,0.023,0.001  c0.301,0,0.607-0.031,0.914-0.095c2.422-0.503,3.974-2.873,3.471-5.292l-3.164-15.215c-0.504-2.419-2.873-3.971-5.292-3.47  c-0.771,0.16-1.455,0.512-2.012,0.994c-0.156,0.092-0.305,0.201-0.445,0.329l-6.204,5.67l-7.092,0.451  c-1.479,0.094-2.603,1.37-2.509,2.851C68.455,37.597,69.637,38.689,71.042,38.689z"
   id="path11"
   style="fill:#ffffff" />
</svg>