<svg xmlns="http://www.w3.org/2000/svg" xmlns:xlink="http://www.w3.org/1999/xlink" version="1.1" x="0px" y="0px" width="100px" height="100px" viewBox="0 0 100 100" enable-background="new 0 0 100 100" xml:space="preserve">
<g id="Captions" display="none">
</g>
<g id="Your_Icon">
	<path style="fill:#FFFFFF;" d="M59.223,21.721c-2.539-2.698-6.771-2.823-9.48-0.295c-2.711,2.526-2.86,6.781-0.349,9.505   c0.025,0.028,0.831,0.917,1.927,2.5L37.531,46.037c-1.067,0.976-1.496,2.382-1.279,3.708c-2.814,1.469-4.746,4.412-4.746,7.803   v39.777c0,1.225,0.994,2.217,2.217,2.217c1.226,0,2.217-0.992,2.217-2.217V57.548c0-2.392,1.936-4.336,4.319-4.361   c0.018,0,0.033,0.004,0.05,0.004c0.018,0,0.033-0.004,0.05-0.004c2.384,0.028,4.315,1.971,4.315,4.361   c0,1.225,0.993,2.217,2.217,2.217c1.226,0,2.217-0.992,2.217-2.217c0-3.06-1.569-5.757-3.946-7.334l10.171-9.299   c1.34,3.353,2.38,7.384,2.38,11.884v40.467c0,3.72,3.016,6.734,6.735,6.734c3.719,0,6.733-3.015,6.733-6.734V52.799   C71.181,34.624,59.71,22.239,59.223,21.721z"/>
	<circle style="fill:#FFFFFF;" cx="44.921" cy="9.729" r="9.729"/>
</g>
</svg>