<?xml version="1.0" encoding="UTF-8" standalone="no"?>
<svg
   xmlns:dc="http://purl.org/dc/elements/1.1/"
   xmlns:cc="http://creativecommons.org/ns#"
   xmlns:rdf="http://www.w3.org/1999/02/22-rdf-syntax-ns#"
   xmlns:svg="http://www.w3.org/2000/svg"
   xmlns="http://www.w3.org/2000/svg"
   xmlns:sodipodi="http://sodipodi.sourceforge.net/DTD/sodipodi-0.dtd"
   xmlns:inkscape="http://www.inkscape.org/namespaces/inkscape"
   version="1.1"
   id="Layer_1"
   x="0px"
   y="0px"
   width="100px"
   height="100px"
   viewBox="0 0 100 100"
   enable-background="new 0 0 100 100"
   xml:space="preserve"
   inkscape:version="0.48.3.1 r9886"
   sodipodi:docname="economie.svg"><metadata
   id="metadata21"><rdf:RDF><cc:Work
       rdf:about=""><dc:format>image/svg+xml</dc:format><dc:type
         rdf:resource="http://purl.org/dc/dcmitype/StillImage" /></cc:Work></rdf:RDF></metadata><defs
   id="defs19" /><sodipodi:namedview
   pagecolor="#ffffff"
   bordercolor="#666666"
   borderopacity="1"
   objecttolerance="10"
   gridtolerance="10"
   guidetolerance="10"
   inkscape:pageopacity="0"
   inkscape:pageshadow="2"
   inkscape:window-width="1855"
   inkscape:window-height="1056"
   id="namedview17"
   showgrid="false"
   inkscape:zoom="2.36"
   inkscape:cx="-38.653486"
   inkscape:cy="54.002653"
   inkscape:window-x="65"
   inkscape:window-y="24"
   inkscape:window-maximized="1"
   inkscape:current-layer="Layer_1" />
<g
   id="g3"
   style="fill:#ffffff"
   transform="matrix(1.3342982,0,0,1.1949691,-17.734869,-20.631166)">
	<polygon
   points="46.144,34.286 46.144,31.243 21.692,31.243 21.692,34.286 13.758,34.286 13.758,38.365 54.079,38.365 54.079,34.286 "
   id="polygon5"
   style="fill:#ffffff" />
	<path
   d="m 71.872,77.169 c -1.07,0.594 -2.295,0.918 -3.555,0.918 -1.261,0 -2.483,-0.324 -3.555,-0.918 -1.07,0.594 -2.294,0.918 -3.554,0.918 -1.26,0 -2.484,-0.324 -3.555,-0.918 -1.069,0.594 -2.294,0.918 -3.553,0.918 -1.262,0 -2.485,-0.324 -3.555,-0.918 -1.071,0.594 -2.294,0.918 -3.553,0.918 -1.261,0 -2.485,-0.324 -3.556,-0.918 -1.07,0.594 -2.294,0.918 -3.554,0.918 -1.26,0 -2.483,-0.324 -3.554,-0.918 -1.07,0.594 -2.294,0.918 -3.555,0.918 v 5.138 4.731 0.521 7.63 4.06 h 5.333 V 82.413 H 48.77 v 17.753 H 82.535 V 78.087 c -1.259,0 -2.483,-0.324 -3.555,-0.918 -1.069,0.594 -2.294,0.918 -3.554,0.918 -1.261,0 -2.486,-0.324 -3.554,-0.918 z m 5.331,16.586 H 54.102 V 82.413 h 23.102 v 11.342 z"
   id="path7"
   style="fill:#ffffff"
   inkscape:connector-curvature="0" />
	<path
   d="m 49.975,65.646 h -7.66 -4.566 -4.975 l -4.739,6.411 h 0 c 0,0.008 0.002,0.018 0.002,0.025 0.001,0.157 0.017,0.312 0.041,0.466 0.007,0.044 0.016,0.09 0.024,0.135 0.026,0.13 0.059,0.259 0.1,0.383 0.009,0.031 0.018,0.063 0.029,0.094 0.057,0.161 0.124,0.319 0.205,0.472 0.002,0.005 0.006,0.011 0.008,0.015 0.081,0.15 0.173,0.296 0.275,0.435 0.012,0.016 0.022,0.033 0.034,0.047 0.447,0.595 1.086,1.093 1.874,1.43 0.008,0.004 0.013,0.01 0.021,0.013 0.64,0.268 1.36,0.421 2.125,0.421 1.418,0 2.687,-0.52 3.555,-1.34 0.868,0.82 2.137,1.34 3.554,1.34 1.418,0 2.687,-0.52 3.554,-1.34 0.868,0.82 2.137,1.34 3.556,1.34 1.417,0 2.684,-0.52 3.553,-1.34 0.869,0.82 2.136,1.34 3.555,1.34 1.417,0 2.684,-0.52 3.553,-1.34 0.869,0.82 2.137,1.34 3.555,1.34 1.419,0 2.687,-0.52 3.554,-1.34 0.867,0.82 2.135,1.34 3.555,1.34 1.419,0 2.685,-0.52 3.555,-1.34 0.868,0.82 2.136,1.34 3.554,1.34 1.419,0 2.687,-0.52 3.554,-1.34 0.869,0.82 2.137,1.34 3.555,1.34 2.615,0 4.731,-1.76 4.738,-3.934 h 0.001 L 82.535,65.648 H 54.079 49.975 z"
   id="path9"
   style="fill:#ffffff"
   inkscape:connector-curvature="0" />
	<rect
   x="13.758"
   y="88.943001"
   width="17.832001"
   height="7.1630001"
   id="rect11"
   style="fill:#ffffff" />
	<path
   d="m 30.087,76.436 c -0.467,-0.199 -0.896,-0.45 -1.281,-0.739 -0.018,-0.014 -0.035,-0.026 -0.052,-0.04 -0.371,-0.286 -0.696,-0.61 -0.969,-0.965 -0.023,-0.028 -0.044,-0.061 -0.066,-0.09 -0.112,-0.153 -0.215,-0.312 -0.306,-0.474 -0.018,-0.03 -0.035,-0.058 -0.051,-0.089 -0.1,-0.187 -0.186,-0.38 -0.257,-0.575 -0.013,-0.038 -0.022,-0.074 -0.035,-0.112 -0.054,-0.161 -0.098,-0.327 -0.131,-0.496 -0.011,-0.057 -0.022,-0.11 -0.031,-0.166 -0.033,-0.206 -0.055,-0.414 -0.057,-0.63 0,-0.182 0.061,-0.361 0.177,-0.518 l 3.06,-4.142 v -3.713 h 7.662 v 0.973 h 4.566 v -0.973 h 7.66 V 64.66 H 54.08 V 39.817 H 13.758 V 87.49 H 31.59 V 83.224 H 30.088 V 76.436 z M 42.315,42.735 h 7.66 v 7.888 h -7.66 v -7.888 z m 0,10.31 h 7.66 v 7.89 h -7.66 v -7.89 z M 30.087,42.735 h 7.662 v 7.888 h -7.662 v -7.888 z m 0,10.31 h 7.662 v 7.89 h -7.662 v -7.89 z m -4.344,30.18 H 18.08 v -7.889 h 7.663 v 7.889 z m 0,-11.648 H 18.08 v -7.89 h 7.663 v 7.89 z m 0,-10.642 H 18.08 v -7.89 h 7.663 v 7.89 z m 0,-10.311 H 18.08 v -7.888 h 7.663 v 7.888 z"
   id="path13"
   style="fill:#ffffff"
   inkscape:connector-curvature="0" />
	<path
   d="m 55.265,34.286 0,4.545 c 0,0.09 -0.021,0.176 -0.048,0.259 0.026,0.083 0.048,0.17 0.048,0.26 l 0,25.31 18.603,0 0,-34.897 -1.156,0 0,-9.205 -1.608,0 C 64.287364,16.515275 59.76539,16.791735 52.949,20.559 l -1.621,0 0,9.205 -1.156,0 0,3.536 3.907,0 c 0.653,0 1.186,0.441 1.186,0.986 z"
   id="path15"
   inkscape:connector-curvature="0"
   style="fill:#ffffff"
   sodipodi:nodetypes="sscscccccccccccss" />
</g>
</svg>