<?xml version="1.0" encoding="UTF-8" standalone="no"?>
<!-- Generator: Adobe Illustrator 15.1.0, SVG Export Plug-In . SVG Version: 6.00 Build 0)  -->

<svg
   xmlns:dc="http://purl.org/dc/elements/1.1/"
   xmlns:cc="http://creativecommons.org/ns#"
   xmlns:rdf="http://www.w3.org/1999/02/22-rdf-syntax-ns#"
   xmlns:svg="http://www.w3.org/2000/svg"
   xmlns="http://www.w3.org/2000/svg"
   xmlns:sodipodi="http://sodipodi.sourceforge.net/DTD/sodipodi-0.dtd"
   xmlns:inkscape="http://www.inkscape.org/namespaces/inkscape"
   version="1.1"
   id="Layer_1"
   x="0px"
   y="0px"
   width="100px"
   height="81px"
   viewBox="0 0 100 81"
   enable-background="new 0 0 100 81"
   xml:space="preserve"
   inkscape:version="0.48.3.1 r9886"
   sodipodi:docname="golf.svg"><metadata
   id="metadata9"><rdf:RDF><cc:Work
       rdf:about=""><dc:format>image/svg+xml</dc:format><dc:type
         rdf:resource="http://purl.org/dc/dcmitype/StillImage" /></cc:Work></rdf:RDF></metadata><defs
   id="defs7" /><sodipodi:namedview
   pagecolor="#ffffff"
   bordercolor="#666666"
   borderopacity="1"
   objecttolerance="10"
   gridtolerance="10"
   guidetolerance="10"
   inkscape:pageopacity="0"
   inkscape:pageshadow="2"
   inkscape:window-width="640"
   inkscape:window-height="480"
   id="namedview5"
   showgrid="false"
   inkscape:zoom="2.9135802"
   inkscape:cx="50"
   inkscape:cy="40.5"
   inkscape:window-x="65"
   inkscape:window-y="24"
   inkscape:window-maximized="0"
   inkscape:current-layer="Layer_1" />
<path
   d="M53,30c-17.484,0-17.047,25.468-39,26.929V20l25-9L14,2c0-1.104-0.896-2-2-2c-1.105,0-2,0.896-2,2v55.181  C4.334,58.137,0,63.066,0,69c0,6.617,5.383,12,12,12c0,0,0,0,0.001,0C77,81,100,72,100,55C100,41.572,76,30,53,30z M12,77  c-4.411,0-8-3.589-8-8c0-3.72,2.555-6.846,6-7.736V69c0,1.104,0.895,2,2,2c1.104,0,2-0.896,2-2v-7.736c3.445,0.891,6,4.017,6,7.736  C20,73.411,16.411,77,12,77z"
   id="path3"
   style="fill:#ffffff" />
</svg>