<?xml version="1.0" encoding="UTF-8" standalone="no"?>
<!-- Generator: Adobe Illustrator 14.0.0, SVG Export Plug-In . SVG Version: 6.00 Build 43363)  -->

<svg
   xmlns:dc="http://purl.org/dc/elements/1.1/"
   xmlns:cc="http://creativecommons.org/ns#"
   xmlns:rdf="http://www.w3.org/1999/02/22-rdf-syntax-ns#"
   xmlns:svg="http://www.w3.org/2000/svg"
   xmlns="http://www.w3.org/2000/svg"
   xmlns:sodipodi="http://sodipodi.sourceforge.net/DTD/sodipodi-0.dtd"
   xmlns:inkscape="http://www.inkscape.org/namespaces/inkscape"
   version="1.0"
   id="Layer_1"
   x="0px"
   y="0px"
   width="100px"
   height="60.921px"
   viewBox="0 0 100 60.921"
   enable-background="new 0 0 100 60.921"
   xml:space="preserve"
   inkscape:version="0.48.3.1 r9886"
   sodipodi:docname="hotel.svg"><metadata
   id="metadata13"><rdf:RDF><cc:Work
       rdf:about=""><dc:format>image/svg+xml</dc:format><dc:type
         rdf:resource="http://purl.org/dc/dcmitype/StillImage" /></cc:Work></rdf:RDF></metadata><defs
   id="defs11" /><sodipodi:namedview
   pagecolor="#ffffff"
   bordercolor="#666666"
   borderopacity="1"
   objecttolerance="10"
   gridtolerance="10"
   guidetolerance="10"
   inkscape:pageopacity="0"
   inkscape:pageshadow="2"
   inkscape:window-width="640"
   inkscape:window-height="480"
   id="namedview9"
   showgrid="false"
   inkscape:zoom="3.6"
   inkscape:cx="50"
   inkscape:cy="30.460501"
   inkscape:window-x="65"
   inkscape:window-y="24"
   inkscape:window-maximized="0"
   inkscape:current-layer="Layer_1" />
<path
   d="M91.669,45.384v15.537h8.203V37.693H8.139V4.088C8.139,1.84,6.337,0,4.063,0l0,0C1.814,0,0,1.84,0,4.088v56.833h8.139  V45.384H91.669z"
   id="path3"
   style="fill:#ffffff" />
<path
   d="M20.661,20.469c4.076,0,7.372-3.296,7.372-7.385c0-4.063-3.296-7.359-7.372-7.359c-4.076,0-7.373,3.296-7.373,7.359  C13.288,17.172,16.584,20.469,20.661,20.469z"
   id="path5"
   style="fill:#ffffff" />
<path
   d="M100,31.585L99.975,21.44c-0.026-3.22-2.734-5.443-5.878-5.826L36.185,9.838c-0.115-0.025-0.217-0.077-0.319-0.077  c-2.006,0-3.628,1.635-3.628,3.628v10.938H17.096c-2.032,0-3.654,1.636-3.654,3.629c0,2.019,1.623,3.629,3.654,3.629H100z"
   id="path7"
   style="fill:#ffffff" />
</svg>