<svg xmlns="http://www.w3.org/2000/svg" xmlns:xlink="http://www.w3.org/1999/xlink" version="1.1" id="Layer_1" x="0px" y="0px" width="100px" height="81.413px" viewBox="0 0 100 81.413" enable-background="new 0 0 100 81.413" xml:space="preserve">
<path style="fill:#FFFFFF;" d="M97.931,73.827h-7.586v-0.69v-2.758v-0.69h7.586c1.143,0,2.069-0.925,2.069-2.068s-0.927-2.069-2.069-2.069h-7.586v-3.448  h-2.759c-6.896,0-8.275,4.828-11.034,4.828c-7.985,0-14.734,1.865-14.925,1.919c-7.869,2.038-14.852,2.794-20.938,2.777  c-7.675-0.026-14.082-1.882-19.142-5.594C12.77,59.591,9.655,48.354,9.655,40.69c0-20.25,18.022-31.035,31.034-31.035  c22.365,0,28.276,15.791,28.276,24.139c0,6.54-3.698,18.618-8.966,18.618c-3.338,0-4.827-0.781-4.827-4.912l2.068-26.121h-8.275  l-0.717,2.869c-2.178-2.604-5.121-4.247-8.938-4.247c-11.207,0-18.562,10.117-18.909,19.31c-0.285,7.581,1.603,23.825,18.909,22.069  c2.859-0.291,5.975-2.052,8.521-5.056c2.403,3.688,6.591,5.742,12.169,5.742c13.932,0,18.621-19.415,18.621-28.273  C78.621,20.21,68.519,0,40.689,0C23.632,0,0,14.141,0,40.69c0,10.396,4.159,24.558,15.835,33.126  c6.765,4.963,15.078,7.457,24.854,7.477c6.935,0,14.854-0.895,23.443-3.119c0.057-0.015,5.811-1.588,12.419-1.588  c2.759,0,4.138,4.827,11.034,4.827h2.759v-3.448h7.586c1.143,0,2.069-0.926,2.069-2.069S99.073,73.827,97.931,73.827z   M39.311,52.195c-3.392,0.275-9.655-0.471-9.655-11.505c0-6.095,4.013-11.319,9.53-11.319c3.047,0,7.649,0.627,7.649,11.319  C46.835,47.412,43.435,51.861,39.311,52.195z"/>
</svg>