<?xml version="1.0" encoding="UTF-8" standalone="no"?>
<svg
   xmlns:dc="http://purl.org/dc/elements/1.1/"
   xmlns:cc="http://creativecommons.org/ns#"
   xmlns:rdf="http://www.w3.org/1999/02/22-rdf-syntax-ns#"
   xmlns:svg="http://www.w3.org/2000/svg"
   xmlns="http://www.w3.org/2000/svg"
   xmlns:sodipodi="http://sodipodi.sourceforge.net/DTD/sodipodi-0.dtd"
   xmlns:inkscape="http://www.inkscape.org/namespaces/inkscape"
   version="1.1"
   id="Layer_1"
   x="0px"
   y="0px"
   width="100px"
   height="100px"
   viewBox="0 0 100 100"
   enable-background="new 0 0 100 100"
   xml:space="preserve"
   inkscape:version="0.48.3.1 r9886"
   sodipodi:docname="renovation.svg"><metadata
   id="metadata25"><rdf:RDF><cc:Work
       rdf:about=""><dc:format>image/svg+xml</dc:format><dc:type
         rdf:resource="http://purl.org/dc/dcmitype/StillImage" /></cc:Work></rdf:RDF></metadata><defs
   id="defs23" /><sodipodi:namedview
   pagecolor="#ffffff"
   bordercolor="#666666"
   borderopacity="1"
   objecttolerance="10"
   gridtolerance="10"
   guidetolerance="10"
   inkscape:pageopacity="0"
   inkscape:pageshadow="2"
   inkscape:window-width="640"
   inkscape:window-height="480"
   id="namedview21"
   showgrid="false"
   inkscape:zoom="2.36"
   inkscape:cx="50"
   inkscape:cy="50"
   inkscape:window-x="65"
   inkscape:window-y="24"
   inkscape:window-maximized="0"
   inkscape:current-layer="Layer_1" />
<path
   fill="#000000"
   d="M11.397,69.293v16.334h42.459V69.293H11.397z M24.458,82.123h-9.792v-9.14h9.792V82.123z M34.261,82.123  h-6.535v-9.14h6.535V82.123z M47.321,82.123h-9.803v-9.14h9.803V82.123z"
   id="path3"
   style="fill:#ffffff" />
<rect
   x="50.725"
   y="49.303"
   fill="#000000"
   width="3.132"
   height="17.947"
   id="rect5"
   style="fill:#ffffff" />
<rect
   x="36.504"
   y="59.751"
   fill="#000000"
   width="12.098"
   height="2.614"
   id="rect7"
   style="fill:#ffffff" />
<rect
   x="36.504"
   y="55.036"
   fill="#000000"
   width="12.098"
   height="2.565"
   id="rect9"
   style="fill:#ffffff" />
<rect
   x="36.504"
   y="64.583"
   fill="#000000"
   width="12.098"
   height="2.667"
   id="rect11"
   style="fill:#ffffff" />
<rect
   x="31.012"
   y="53.684"
   fill="#000000"
   width="3.23"
   height="13.566"
   id="rect13"
   style="fill:#ffffff" />
<polygon
   fill="#000000"
   points="28.806,67.293 28.806,64.53 16.831,64.53 16.831,67.25 "
   id="polygon15"
   style="fill:#ffffff" />
<rect
   x="11.397"
   y="60.377"
   fill="#000000"
   width="3.268"
   height="6.873"
   id="rect17"
   style="fill:#ffffff" />
<path
   fill="#000000"
   d="M77.023,35.129l-6.949-22.506l-5.941,22.506h-3.268h-3.078l-0.943-1.427H11.999L4.46,41.664h56.405v6.549  h3.268v29.705h-2.155l-4.853,7.71h29.102l-4.853-7.71h-4.17V48.212h3.267v-6.549h3.269v6.536h9.802v-13.07H77.023z M16.397,38.766  h-5.301l2.172-2.171h5.297L16.397,38.766z M25.542,38.766h-5.301l2.172-2.171h5.298L25.542,38.766z M34.696,38.766h-5.301  l2.173-2.171h5.298L34.696,38.766z M43.84,38.766h-5.301l2.173-2.171h5.298L43.84,38.766z M47.797,38.766l2.174-2.171h5.317  l1.437,2.171H47.797z M70.259,21.438l1.652,5.35l-4.083,3.849L70.259,21.438z M64.128,44.928V38.4h9.812v6.528H64.128z   M73.936,48.695l-6.535,5.55v-5.55H73.936z M73.551,77.917H67.4v-1.058l6.535-6.154L73.551,77.917z M73.936,66.191l-6.535,6.15  v-4.951l6.535-6.15V66.191z M73.936,57.145L67.4,63.293v-4.949l6.535-6.152V57.145z M67.409,35.129l5.483-5.169l1.594,5.169H67.409z  "
   id="path19"
   style="fill:#ffffff" />
</svg>