<?xml version="1.0" encoding="UTF-8" standalone="no"?>
<svg
   xmlns:dc="http://purl.org/dc/elements/1.1/"
   xmlns:cc="http://creativecommons.org/ns#"
   xmlns:rdf="http://www.w3.org/1999/02/22-rdf-syntax-ns#"
   xmlns:svg="http://www.w3.org/2000/svg"
   xmlns="http://www.w3.org/2000/svg"
   xmlns:sodipodi="http://sodipodi.sourceforge.net/DTD/sodipodi-0.dtd"
   xmlns:inkscape="http://www.inkscape.org/namespaces/inkscape"
   version="1.1"
   id="Livello_1"
   x="0px"
   y="0px"
   width="94px"
   height="100px"
   viewBox="-0.046 0 94 100"
   enable-background="new -0.046 0 94 100"
   xml:space="preserve"
   inkscape:version="0.48.3.1 r9886"
   sodipodi:docname="sante.svg"><metadata
   id="metadata25"><rdf:RDF><cc:Work
       rdf:about=""><dc:format>image/svg+xml</dc:format><dc:type
         rdf:resource="http://purl.org/dc/dcmitype/StillImage" /></cc:Work></rdf:RDF></metadata><defs
   id="defs23" /><sodipodi:namedview
   pagecolor="#ffffff"
   bordercolor="#666666"
   borderopacity="1"
   objecttolerance="10"
   gridtolerance="10"
   guidetolerance="10"
   inkscape:pageopacity="0"
   inkscape:pageshadow="2"
   inkscape:window-width="640"
   inkscape:window-height="480"
   id="namedview21"
   showgrid="false"
   inkscape:zoom="2.36"
   inkscape:cx="77.0542"
   inkscape:cy="50"
   inkscape:window-x="65"
   inkscape:window-y="24"
   inkscape:window-maximized="0"
   inkscape:current-layer="Livello_1" />
<g
   id="g3"
   style="fill:#ffffff">
	<path
   d="M35.579,11.06l-1.453,0.938c0,0-0.832-0.015-2.587,1.25c-1.199,0.865-1.209,1.336-1.784,1.82   c-0.575,0.484-1.996,0.337-1.996,0.337s1.603-0.276,1.482-0.699c-0.05-0.178-0.429-0.295-0.999-0.289   c-1.165,0.016-1.739-0.21-1.739-0.21s0.52,0.07,1.573-0.151c1.006-0.212,1.731-0.282,2.337-0.706   c0.604-0.423,1.757-1.448,3.14-1.942C34.822,10.954,35.579,11.06,35.579,11.06z"
   id="path5"
   style="fill:#ffffff" />
</g>
<g
   id="g7"
   style="fill:#ffffff">
	<path
   d="M76.599,19.38c-0.687-3-1.763-5.728-3.103-7.906c-3.025-4.92-6.964-8.58-12.423-10.327   C50.987-2.08,44.45,2.595,42.275,3.366c-1.533,0.542-3.106-0.485-5.566,1.168c-1.053,0.708-5.214,0.846-8.148,1.17   c-2.418,0.269-1.675,3.309-1.434,3.954c0.252,0.673,0.676,1.16,0.676,1.16s-0.06-0.935,0.303-0.933   c0.44,0.003,2.269,1.461,2.269,1.461s0.494-1.458,1.648-1.467c1.638-0.015,3.833,0.238,4.916,0.182   c1.938-0.103-1.301,2.208-1.301,2.208s-3.933,2.058-3.73,3.036c0.209,1.012,2.804,0.945,3.348,0.847   c2.157-0.389,8.486-4.275,9.278-7.14c0.725-2.622,5.279-4.347,9.106-4.004c7.068,0.636,11.043,3.561,14.975,10.923   c0.576,1.074,0.959,2.235,1.306,3.449H76.599z"
   id="path9"
   style="fill:#ffffff" />
</g>
<path
   d="M46.954,21.316H0c0,0,2.904,12.101,36.869,17.507c6.019,0.958,6.212,5.062,6.212,5.97c0,0.062,0,0.319,0,0.708  c2.896-0.364,5.427-0.72,7.766-1.188c0.12-1.407,0.928-4.652,6.193-5.49c33.963-5.407,36.868-17.507,36.868-17.507H46.954z"
   id="path11"
   style="fill:#ffffff" />
<path
   d="M66.721,38.979c-1.427,1.528-3.148,2.872-5.364,3.958c-6.052,2.965-11.619,3.761-19.243,4.699  c-1.234,0.152-19.666,2.421-19.666,12.041c0,8.327,14.723,10.67,18.686,11.15v-7.151c-2.702-0.353-10.073-1.55-10.073-4.12  c0-3.146,9.572-4.48,11.053-4.66c10.618-1.27,17.729-3.357,23.405-6.432c5.276-2.859,8.533-7.196,10.281-12.051  C73.022,37.363,69.992,38.218,66.721,38.979z"
   id="path13"
   style="fill:#ffffff" />
<path
   d="M52.788,65.146v7.037c1.494,0.286,4.17,0.982,4.17,2.321c0,1.854-10.084,3.771-16.861,6.998s-9.036,8.066-9.036,8.066  s2.5-2.096,7.906-3.549s25.172-3.168,25.172-12.152C64.139,67.442,55.716,65.594,52.788,65.146z"
   id="path15"
   style="fill:#ffffff" />
<path
   d="M70.431,95.68c-4.926-1.635-12.332-2.221-16.498-4.336c-2.16-1.096-3.127-2.773-3.106-4.861  c0.002-0.159,0.003-0.47,0.004-0.887c-2.6,0.642-5.161,1.123-7.344,1.532c-0.153,0.028-0.293,0.056-0.442,0.083  c-0.191,1.751-1.166,3.168-3.068,4.133c-4.165,2.115-11.572,2.701-16.499,4.336c-5.137,1.707-6.535,4.297-6.535,4.297h30.012h30.013  C76.967,99.977,75.566,97.387,70.431,95.68z"
   id="path17"
   style="fill:#ffffff" />
<path
   d="M43.075,56.791c-0.003,6.816-0.006,15.178-0.004,21.313c1.956-0.734,3.958-1.399,5.819-2.007  c0.611-0.199,1.28-0.42,1.948-0.644c0.001-6.177-0.003-13.784-0.006-19.896C48.443,56.034,45.868,56.441,43.075,56.791z"
   id="path19"
   style="fill:#ffffff" />
</svg>