<?xml version="1.0" encoding="UTF-8" standalone="no"?>
<svg
   xmlns:dc="http://purl.org/dc/elements/1.1/"
   xmlns:cc="http://creativecommons.org/ns#"
   xmlns:rdf="http://www.w3.org/1999/02/22-rdf-syntax-ns#"
   xmlns:svg="http://www.w3.org/2000/svg"
   xmlns="http://www.w3.org/2000/svg"
   xmlns:sodipodi="http://sodipodi.sourceforge.net/DTD/sodipodi-0.dtd"
   xmlns:inkscape="http://www.inkscape.org/namespaces/inkscape"
   version="1.1"
   id="Layer_1"
   x="0px"
   y="0px"
   width="100px"
   height="100px"
   viewBox="0 0 100 100"
   enable-background="new 0 0 100 100"
   xml:space="preserve"
   inkscape:version="0.48.3.1 r9886"
   sodipodi:docname="tourism.svg"><metadata
   id="metadata17"><rdf:RDF><cc:Work
       rdf:about=""><dc:format>image/svg+xml</dc:format><dc:type
         rdf:resource="http://purl.org/dc/dcmitype/StillImage" /></cc:Work></rdf:RDF></metadata><defs
   id="defs15" /><sodipodi:namedview
   pagecolor="#ffffff"
   bordercolor="#666666"
   borderopacity="1"
   objecttolerance="10"
   gridtolerance="10"
   guidetolerance="10"
   inkscape:pageopacity="0"
   inkscape:pageshadow="2"
   inkscape:window-width="640"
   inkscape:window-height="480"
   id="namedview13"
   showgrid="false"
   inkscape:zoom="2.36"
   inkscape:cx="50"
   inkscape:cy="50"
   inkscape:window-x="65"
   inkscape:window-y="24"
   inkscape:window-maximized="0"
   inkscape:current-layer="Layer_1" />
<g
   id="g3"
   style="fill:#ffffff">
	<path
   d="M61.14,64.494l-2.073,12.859l-0.593,3.787H57.35v0.002h-6.305v-0.002h-3.213l-6.031,18.896h3.213l4.893-15.328h8.585   l4.894,15.328H66.4L61.51,84.709h16.278l-4.892,15.328h3.212l4.894-15.328h8.587l4.889,15.328h3.019L91.7,81.877l0.707-4.523   l2.07-12.859h-2.245H63.387H61.14z M88.797,81.141h-0.35v0.002h-6.307l0.003-0.002h-3.216l-0.004,0.002H61.286l0.592-3.789h27.511   L88.797,81.141z"
   id="path5"
   style="fill:#ffffff" />
	<path
   d="M41,73.309c3.33-1.188,6.312-3.307,8.725-6.105c1.907,0.896,4.029,1.41,6.276,1.41c0.738,0,1.457-0.076,2.165-0.186   l0.693-4.303c0.181-1.119,1.146-1.941,2.28-1.941h2.247h4.753c1.653-2.391,2.667-5.252,2.667-8.377   c-0.003-4.558-2.062-8.629-5.3-11.347c3.237-2.716,5.297-6.787,5.297-11.347c0-8.178-6.628-14.807-14.807-14.807   c-0.301,0-0.592,0.026-0.89,0.045C52.165,6.8,44.392-0.038,35.23-0.038c-11.684,0-21.154,11.104-21.154,24.806   c0,0.036,0.004,0.072,0.004,0.107C6.717,25.732,1,31.984,1,39.576c0,6.167,3.768,11.446,9.127,13.674   c-0.91,1.922-1.434,4.061-1.434,6.328c0,8.176,6.629,14.803,14.807,14.803c1.83,0,3.574-0.344,5.193-0.951v21.566h12.293L41,94.955   V73.309z"
   id="path7"
   style="fill:#ffffff" />
	<g
   id="g9"
   style="fill:#ffffff">
		<path
   d="M82.652,14.421L82.652,14.421c-0.999-0.199-1.65-1.17-1.452-2.171c0.253-1.28-4.207-3.748-9.008-4.986    c-0.987-0.255-1.583-1.262-1.328-2.25c0.258-0.988,1.297-1.574,2.251-1.329c2.146,0.554,7.694,2.21,10.343,5.1    c3.017-2.244,8.182-2.456,11.205-1.855c1.001,0.199,1.65,1.171,1.451,2.171c-0.197,1.002-1.17,1.651-2.169,1.454    c-2.855-0.567-8.626-0.067-9.12,2.414C84.627,13.97,83.652,14.62,82.652,14.421z"
   id="path11"
   style="fill:#ffffff" />
	</g>
</g>
</svg>