<?xml version="1.0" encoding="UTF-8" standalone="no"?>
<svg
   xmlns:dc="http://purl.org/dc/elements/1.1/"
   xmlns:cc="http://creativecommons.org/ns#"
   xmlns:rdf="http://www.w3.org/1999/02/22-rdf-syntax-ns#"
   xmlns:svg="http://www.w3.org/2000/svg"
   xmlns="http://www.w3.org/2000/svg"
   xmlns:sodipodi="http://sodipodi.sourceforge.net/DTD/sodipodi-0.dtd"
   xmlns:inkscape="http://www.inkscape.org/namespaces/inkscape"
   version="1.1"
   x="0px"
   y="0px"
   width="100px"
   height="100px"
   viewBox="0 0 100 100"
   enable-background="new 0 0 100 100"
   xml:space="preserve"
   id="svg2"
   inkscape:version="0.48.3.1 r9886"
   sodipodi:docname="zoo.svg"><metadata
   id="metadata12"><rdf:RDF><cc:Work
       rdf:about=""><dc:format>image/svg+xml</dc:format><dc:type
         rdf:resource="http://purl.org/dc/dcmitype/StillImage" /></cc:Work></rdf:RDF></metadata><defs
   id="defs10" /><sodipodi:namedview
   pagecolor="#ffffff"
   bordercolor="#666666"
   borderopacity="1"
   objecttolerance="10"
   gridtolerance="10"
   guidetolerance="10"
   inkscape:pageopacity="0"
   inkscape:pageshadow="2"
   inkscape:window-width="640"
   inkscape:window-height="480"
   id="namedview8"
   showgrid="false"
   inkscape:zoom="2.36"
   inkscape:cx="50"
   inkscape:cy="50"
   inkscape:window-x="65"
   inkscape:window-y="24"
   inkscape:window-maximized="0"
   inkscape:current-layer="svg2" />
<g
   id="Captions"
   style="fill:#ffffff">
</g>
<g
   id="Your_Icon"
   style="fill:#ffffff">
	<path
   fill-rule="evenodd"
   clip-rule="evenodd"
   d="M80.549,42.801c-0.742-1.78-2.002-3.118-3.785-3.936   c0.891,1.856,1.186,3.045,1.186,5.123c0,0,0,0.072-0.221,2.228l-0.223,1.559l-0.223,2.006l-0.148,1.338l0.445,3.637l0.074,2.002   l0.148,0.817l0.666,0.967l1.117,0.52l1.631,0.813l0.447,1.337l-0.299,1.266v1.707l-0.148,0.963l-0.072,0.967l-0.15,0.817   l-0.148,0.741l-0.221,2.449L80.4,71.68v0.596v0.443l-0.074,0.298l-0.072,0.222l-0.148,0.298l-0.596,0.298l-0.963,0.295H77.58   l-1.93-0.073h-0.67l-2.152-0.148h-0.295l-0.225-0.149l-0.295-0.443l-0.078-0.446l-0.072-0.891l0.15-0.596l0.221-0.371l0.52-0.294   l0.594-0.148l0.816-0.149h0.447l0.295-0.076l0.15-0.146l0.223-0.374l0.221-1.261l0.371-1.857l0.225-1.039l0.074-1.261v-0.148   l-0.074-0.447l-0.148-0.146l-0.297-0.153l-1.264-0.664l-3.49-2.376l-2.67-2.747l-0.447-0.745l-0.148-0.371l-0.223-0.52   l-0.445-0.741l-0.371-0.52l-0.223-0.222l-0.223-0.076l-0.52,0.447l-0.445,0.89l-0.445,2.078l0.146,1.56l0.225,0.37l0.52,0.523   l1.113,1.112l0.074,0.668l-0.146,0.294l-0.299,0.597l-1.113,1.929l-0.742,1.78l-0.67,1.563l-0.369,1.559l-0.299,0.669l-0.221,1.261   v0.89l-0.445,0.817l-0.594,0.298l-0.891,0.295h-1.039l-1.932-0.073h-0.594l-2.229-0.148h-0.295l-0.225-0.149l-0.221-0.447   l-0.076-0.442l-0.072-0.891l0.072-0.596l0.297-0.371l0.447-0.294l0.223-0.076l0.445-0.072l0.443-0.077h0.52l0.598-0.072h0.146   l0.373-0.375l0.592-0.89l0.967-2.151l0.891-2.376l0.148-0.741l0.148-0.817v-0.298l-0.076-0.371l-0.297-0.447l-0.445-0.813   l-0.445-1.265l-0.148-0.52l-1.039-4.084l-0.373-2.224l-0.295-3.492l-1.336,1.188l-1.262,1.188l-1.484,1.039l-2.305,1.486   l-2.818,1.482l-2.377,0.745l-2.301,0.37l-2.303,0.443l-0.52,0.076l-0.371,0.298l-0.52,0.371l-1.111,1.631l0.293,2.973l0.227,2.372   l0.221,2.304l0.299,2.377v1.188l-0.076,0.962l-0.223,0.597l-0.221,0.592L38.9,73.686l-0.299,0.222l-0.814,0.222h-2.895   l-2.971-0.146l-0.373-0.076l-0.221-0.149l-0.221-0.37l-0.078-0.443l-0.072-0.673l0.15-0.89l0.295-0.443l0.445-0.298l0.668-0.149   l0.52-0.072l0.67-0.076l0.889-0.146l0.15-0.153v-0.221v-0.371v-0.596v-0.294l-0.15-0.967l-0.443-1.78l-0.076-1.188l-0.443-1.41   l-0.596-1.265l-0.369-1.333l-0.447-0.745l-0.297-0.963l-0.668-0.967l-0.371-0.89l-0.295-0.669l-0.373-0.37l-0.445-0.669   l-0.967-0.298l-0.592,1.115l-0.668,1.78l-0.742,1.41l-0.818,2.304l-0.594,2.525l-0.52,1.035l-0.594,0.967l-0.594,1.41l-0.893,3.045   l-0.443,1.188l-0.52,1.039l-0.447,0.817l-0.369,0.222l-0.742,0.222h-1.635l-0.445-0.073h-0.594l-2.748-0.072l-0.295-0.076   l-0.225-0.149l-0.297-0.37l-0.072-0.443l-0.076-0.52l0.148-0.596l0.148-0.447l0.299-0.443l0.445-0.298l1.262-0.149l0.668-0.148   l0.443-0.146l0.299-0.447l0.223-1.188l0.225-0.818l0.443-2.006l0.371-2.228l0.445-2.746l0.15-2.521v-1.486l-0.225-1.853   l-1.336-0.226l-0.889-0.371h-1.189l-1.115-0.52l-0.52-1.265l-1.631-0.366l-0.668-0.673l-2.08-0.813l-1.783,0.294L7.199,51.19   l-0.666,0.222L5.938,51.71l-0.223-0.072l-0.52-0.597l-1.262-0.745l-0.594-0.89l-0.15-1.261l-0.52-0.371l-1.26-0.745l-0.594-0.886   L0.52,45.696l-0.373-0.447L0,44.729v-0.52v-0.669l0.146-0.592l0.297-0.447l3.936-4.008l0.447-0.817l0.221-0.89l0.148-1.188   l0.15-0.447l-0.15-0.52l0.15-0.298l0.072-0.443l0.223-0.447l0.373-0.221l0.146-0.447l0.074-0.371l0.223-0.37l0.076-0.443   l0.146-0.374l0.373-0.149l0.221-0.294l0.15-0.371l0.297-0.148l0.295-0.226l0.225-0.218l0.148-0.52l0.223-0.302l0.445-0.222   l0.223-0.222l0.297-0.37l0.52-0.149l0.52-0.226l0.445-0.294l0.447-0.298l0.52-0.146l0.814-0.076l0.596-0.226l0.369-0.371   l0.52-0.148h0.596l0.742-0.218l0.74,0.072l0.967-0.226h1.113l0.891,0.077h0.668l0.744,0.148l0.891,0.073l0.668-0.146l0.592,0.146   l0.447,0.298l0.816,0.222l0.965,0.072l0.742,0.302l0.445,0.294l0.371,0.299l0.447,0.072l0.295,0.222l0.596,0.076l0.52,0.072   l0.52,0.149l0.52,0.447l0.594,0.37l0.594,0.149l0.668,0.076l0.592,0.366l0.373,0.447l0.52,0.149l0.373,0.222l0.443,0.148h0.373   l0.223,0.149l0.146,0.222l0.225,0.076l0.445,0.072l0.295-0.072h0.299l0.297,0.072l0.223,0.222l0.594,0.226h0.371l0.373,0.072   l0.74,0.149l1.262,0.072l1.188,0.149l0.668,0.076l1.115,0.146l1.41,0.076l1.93,0.149l2.674,0.148l2.301,0.073h2.449l3.193-0.073   l3.34-0.226l3.193-0.294l2.377-0.298l2.299-0.37l1.039-0.149l0.67-0.076l0.297-0.073h0.297h0.223l0,0   c4.826,0,9.205,2.896,11.135,7.278c3.268,7.722,4.01,11.282,4.232,19.672c0,2.304,1.93,4.233,4.305,4.233   c1.039,0,1.932-0.298,2.748-0.967c0.52-0.37,0.816-1.039,0.816-1.708c0-0.37,0-0.52-0.148-0.817   c-0.297-0.665-0.371-0.963-0.371-1.704c0-0.745,0.223-1.486,0.594-2.154l2.523-4.233l-0.295,1.934l1.633-2.973l-0.299,2.304   l1.783-2.747l-0.52,2.521l1.262-1.333l-0.594,2.372L100,51.71l-0.52,1.856c-0.371,1.261-0.371,1.41-0.371,1.559   c-0.074,0.149-0.074,0.222-0.148,1.56c-0.074,1.337-0.816,2.525-1.932,3.339l-3.117,2.376c-1.188,0.891-2.449,1.337-3.859,1.337   c-2.746,0-5.123-1.784-5.939-4.306c-0.223-0.74-0.15-0.446-0.223-1.188C83.594,52.971,82.404,47.702,80.549,42.801"
   id="path6"
   style="fill:#ffffff" />
</g>
</svg>